<svg aria-roledescription="er" role="graphics-document document" viewBox="0 0 442.60894775390625 832" style="max-width: 442.60894775390625px;" xmlns="http://www.w3.org/2000/svg" width="100%" id="mermaidSvgId"><style>#mermaidSvgId{font-family:trebuchet ms,verdana,arial;font-size:16px;fill:#000;}#mermaidSvgId .error-icon{fill:#fff;}#mermaidSvgId .error-text{fill:#000;stroke:#000;}#mermaidSvgId .edge-thickness-normal{stroke-width:1px;}#mermaidSvgId .edge-thickness-thick{stroke-width:3.5px;}#mermaidSvgId .edge-pattern-solid{stroke-dasharray:0;}#mermaidSvgId .edge-thickness-invisible{stroke-width:0;fill:none;}#mermaidSvgId .edge-pattern-dashed{stroke-dasharray:3;}#mermaidSvgId .edge-pattern-dotted{stroke-dasharray:2;}#mermaidSvgId .marker{fill:#000;stroke:#000;}#mermaidSvgId .marker.cross{stroke:#000;}#mermaidSvgId svg{font-family:trebuchet ms,verdana,arial;font-size:16px;}#mermaidSvgId p{margin:0;}#mermaidSvgId .entityBox{fill:#fff;stroke:#000;}#mermaidSvgId .attributeBoxOdd{fill:#ffffff;stroke:#000;}#mermaidSvgId .attributeBoxEven{fill:#f2f2f2;stroke:#000;}#mermaidSvgId .relationshipLabelBox{fill:#fff;opacity:0.7;background-color:#fff;}#mermaidSvgId .relationshipLabelBox rect{opacity:0.5;}#mermaidSvgId .relationshipLine{stroke:#000;}#mermaidSvgId .entityTitleText{text-anchor:middle;font-size:18px;fill:#000;}#mermaidSvgId #MD_PARENT_START{fill:#f5f5f5!important;stroke:#000!important;stroke-width:1;}#mermaidSvgId #MD_PARENT_END{fill:#f5f5f5!important;stroke:#000!important;stroke-width:1;}#mermaidSvgId :root{--mermaid-font-family:"trebuchet ms",verdana,arial,sans-serif;}</style><g></g><defs><marker orient="auto" markerHeight="240" markerWidth="190" refY="7" refX="0" id="MD_PARENT_START"><path d="M 18,7 L9,13 L1,7 L9,1 Z"></path></marker></defs><defs><marker orient="auto" markerHeight="28" markerWidth="20" refY="7" refX="19" id="MD_PARENT_END"><path d="M 18,7 L9,13 L1,7 L9,1 Z"></path></marker></defs><defs><marker orient="auto" markerHeight="18" markerWidth="18" refY="9" refX="0" id="ONLY_ONE_START"><path d="M9,0 L9,18 M15,0 L15,18" fill="none" stroke="gray"></path></marker></defs><defs><marker orient="auto" markerHeight="18" markerWidth="18" refY="9" refX="18" id="ONLY_ONE_END"><path d="M3,0 L3,18 M9,0 L9,18" fill="none" stroke="gray"></path></marker></defs><defs><marker orient="auto" markerHeight="18" markerWidth="30" refY="9" refX="0" id="ZERO_OR_ONE_START"><circle r="6" cy="9" cx="21" fill="white" stroke="gray"></circle><path d="M9,0 L9,18" fill="none" stroke="gray"></path></marker></defs><defs><marker orient="auto" markerHeight="18" markerWidth="30" refY="9" refX="30" id="ZERO_OR_ONE_END"><circle r="6" cy="9" cx="9" fill="white" stroke="gray"></circle><path d="M21,0 L21,18" fill="none" stroke="gray"></path></marker></defs><defs><marker orient="auto" markerHeight="36" markerWidth="45" refY="18" refX="18" id="ONE_OR_MORE_START"><path d="M0,18 Q 18,0 36,18 Q 18,36 0,18 M42,9 L42,27" fill="none" stroke="gray"></path></marker></defs><defs><marker orient="auto" markerHeight="36" markerWidth="45" refY="18" refX="27" id="ONE_OR_MORE_END"><path d="M3,9 L3,27 M9,18 Q27,0 45,18 Q27,36 9,18" fill="none" stroke="gray"></path></marker></defs><defs><marker orient="auto" markerHeight="36" markerWidth="57" refY="18" refX="18" id="ZERO_OR_MORE_START"><circle r="6" cy="18" cx="48" fill="white" stroke="gray"></circle><path d="M0,18 Q18,0 36,18 Q18,36 0,18" fill="none" stroke="gray"></path></marker></defs><defs><marker orient="auto" markerHeight="36" markerWidth="57" refY="18" refX="39" id="ZERO_OR_MORE_END"><circle r="6" cy="18" cx="9" fill="white" stroke="gray"></circle><path d="M21,18 Q39,0 57,18 Q39,36 21,18" fill="none" stroke="gray"></path></marker></defs><path style="stroke: gray; fill: none;" marker-start="url(#ONLY_ONE_START)" marker-end="url(#ZERO_OR_MORE_END)" d="M166.883,125.942L146.168,138.952C125.454,151.962,84.024,177.981,66.87,199.324C49.716,220.667,56.839,237.333,60.4,245.667L63.961,254" class="er relationshipLine"></path><path style="stroke: gray; fill: none;" marker-start="url(#ONLY_ONE_START)" marker-end="url(#ZERO_OR_MORE_END)" d="M92.594,388L92.594,396.333C92.594,404.667,92.594,421.333,99.378,438C106.163,454.667,119.731,471.333,126.516,479.667L133.3,488" class="er relationshipLine"></path><path style="stroke: gray; fill: none;" marker-start="url(#ONLY_ONE_START)" marker-end="url(#ZERO_OR_MORE_END)" d="M178.891,600L178.891,608.333C178.891,616.667,178.891,633.333,185.551,650C192.211,666.667,205.531,683.333,212.191,691.667L218.851,700" class="er relationshipLine"></path><path style="stroke: gray; fill: none;" marker-start="url(#ONLY_ONE_START)" marker-end="url(#ZERO_OR_MORE_END)" d="M231.721,488L239.583,479.667C247.444,471.333,263.167,454.667,271.029,426.833C278.891,399,278.891,360,278.891,321C278.891,282,278.891,243,275.329,215.167C271.768,187.333,264.646,170.667,261.084,162.333L257.523,154" class="er relationshipLine"></path><path style="stroke: gray; fill: none;" marker-start="url(#ONLY_ONE_START)" marker-end="url(#ZERO_OR_MORE_END)" d="M290.898,126.276L311.35,139.23C331.801,152.184,372.704,178.092,393.156,210.546C413.607,243,413.607,282,413.607,321C413.607,360,413.607,399,413.607,436.167C413.607,473.333,413.607,508.667,413.607,544C413.607,579.333,413.607,614.667,399.957,641.98C386.306,669.293,359.005,688.586,345.354,698.232L331.703,707.879" class="er relationshipLine"></path><path style="stroke: gray; fill: none;" marker-start="url(#ONLY_ONE_START)" marker-end="url(#ZERO_OR_MORE_END)" d="M121.226,254L124.788,245.667C128.349,237.333,135.471,220.667,145.179,204C154.887,187.333,167.18,170.667,173.326,162.333L179.473,154" class="er relationshipLine"></path><g transform="translate(166.88341903686523,20 )" id="entity-ROOM-594a537b-d94c-57ef-8f6c-509ede73a787"><rect height="134" width="124.01461791992188" y="0" x="0" class="er entityBox"></rect><text transform="translate(62.00730895996094,12)" style="dominant-baseline: middle; text-anchor: middle; font-size: 12px;" y="0" x="0" id="text-entity-ROOM-594a537b-d94c-57ef-8f6c-509ede73a787" class="er entityLabel">ROOM</text><rect height="22" width="36.61909484863281" y="24" x="0" class="er attributeBoxOdd"></rect><text transform="translate(5,35)" style="dominant-baseline: middle; font-size: 10.2px;" y="0" x="0" id="text-entity-ROOM-594a537b-d94c-57ef-8f6c-509ede73a787-attr-1-type" class="er entityLabel">int</text><rect height="22" width="64.70783996582031" y="24" x="36.61909484863281" class="er attributeBoxOdd"></rect><text transform="translate(41.61909484863281,35)" style="dominant-baseline: middle; font-size: 10.2px;" y="0" x="0" id="text-entity-ROOM-594a537b-d94c-57ef-8f6c-509ede73a787-attr-1-name" class="er entityLabel">ID</text><rect height="22" width="22.68768310546875" y="24" x="101.32693481445312" class="er attributeBoxOdd"></rect><text transform="translate(106.32693481445312,35)" style="dominant-baseline: middle; font-size: 10.2px;" y="0" x="0" id="text-entity-ROOM-594a537b-d94c-57ef-8f6c-509ede73a787-attr-1-key" class="er entityLabel">PK</text><rect height="22" width="36.61909484863281" y="46" x="0" class="er attributeBoxEven"></rect><text transform="translate(5,57)" style="dominant-baseline: middle; font-size: 10.2px;" y="0" x="0" id="text-entity-ROOM-594a537b-d94c-57ef-8f6c-509ede73a787-attr-2-type" class="er entityLabel">string</text><rect height="22" width="64.70783996582031" y="46" x="36.61909484863281" class="er attributeBoxEven"></rect><text transform="translate(41.61909484863281,57)" style="dominant-baseline: middle; font-size: 10.2px;" y="0" x="0" id="text-entity-ROOM-594a537b-d94c-57ef-8f6c-509ede73a787-attr-2-name" class="er entityLabel">Name</text><rect height="22" width="22.68768310546875" y="46" x="101.32693481445312" class="er attributeBoxEven"></rect><text transform="translate(106.32693481445312,57)" style="dominant-baseline: middle; font-size: 10.2px;" y="0" x="0" id="text-entity-ROOM-594a537b-d94c-57ef-8f6c-509ede73a787-attr-2-key" class="er entityLabel"></text><rect height="22" width="36.61909484863281" y="68" x="0" class="er attributeBoxOdd"></rect><text transform="translate(5,79)" style="dominant-baseline: middle; font-size: 10.2px;" y="0" x="0" id="text-entity-ROOM-594a537b-d94c-57ef-8f6c-509ede73a787-attr-3-type" class="er entityLabel">string</text><rect height="22" width="64.70783996582031" y="68" x="36.61909484863281" class="er attributeBoxOdd"></rect><text transform="translate(41.61909484863281,79)" style="dominant-baseline: middle; font-size: 10.2px;" y="0" x="0" id="text-entity-ROOM-594a537b-d94c-57ef-8f6c-509ede73a787-attr-3-name" class="er entityLabel">Description</text><rect height="22" width="22.68768310546875" y="68" x="101.32693481445312" class="er attributeBoxOdd"></rect><text transform="translate(106.32693481445312,79)" style="dominant-baseline: middle; font-size: 10.2px;" y="0" x="0" id="text-entity-ROOM-594a537b-d94c-57ef-8f6c-509ede73a787-attr-3-key" class="er entityLabel"></text><rect height="22" width="36.61909484863281" y="90" x="0" class="er attributeBoxEven"></rect><text transform="translate(5,101)" style="dominant-baseline: middle; font-size: 10.2px;" y="0" x="0" id="text-entity-ROOM-594a537b-d94c-57ef-8f6c-509ede73a787-attr-4-type" class="er entityLabel">string</text><rect height="22" width="64.70783996582031" y="90" x="36.61909484863281" class="er attributeBoxEven"></rect><text transform="translate(41.61909484863281,101)" style="dominant-baseline: middle; font-size: 10.2px;" y="0" x="0" id="text-entity-ROOM-594a537b-d94c-57ef-8f6c-509ede73a787-attr-4-name" class="er entityLabel">Exits</text><rect height="22" width="22.68768310546875" y="90" x="101.32693481445312" class="er attributeBoxEven"></rect><text transform="translate(106.32693481445312,101)" style="dominant-baseline: middle; font-size: 10.2px;" y="0" x="0" id="text-entity-ROOM-594a537b-d94c-57ef-8f6c-509ede73a787-attr-4-key" class="er entityLabel"></text><rect height="22" width="36.61909484863281" y="112" x="0" class="er attributeBoxOdd"></rect><text transform="translate(5,123)" style="dominant-baseline: middle; font-size: 10.2px;" y="0" x="0" id="text-entity-ROOM-594a537b-d94c-57ef-8f6c-509ede73a787-attr-5-type" class="er entityLabel">int</text><rect height="22" width="64.70783996582031" y="112" x="36.61909484863281" class="er attributeBoxOdd"></rect><text transform="translate(41.61909484863281,123)" style="dominant-baseline: middle; font-size: 10.2px;" y="0" x="0" id="text-entity-ROOM-594a537b-d94c-57ef-8f6c-509ede73a787-attr-5-name" class="er entityLabel">ChallengeID</text><rect height="22" width="22.68768310546875" y="112" x="101.32693481445312" class="er attributeBoxOdd"></rect><text transform="translate(106.32693481445312,123)" style="dominant-baseline: middle; font-size: 10.2px;" y="0" x="0" id="text-entity-ROOM-594a537b-d94c-57ef-8f6c-509ede73a787-attr-5-key" class="er entityLabel">FK</text></g><g transform="translate(20,254 )" id="entity-CHALLENGE-64602887-5a22-5e4e-bf53-aeb4c0b17799"><rect height="134" width="145.18763732910156" y="0" x="0" class="er entityBox"></rect><text transform="translate(72.59381866455078,12)" style="dominant-baseline: middle; text-anchor: middle; font-size: 12px;" y="0" x="0" id="text-entity-CHALLENGE-64602887-5a22-5e4e-bf53-aeb4c0b17799" class="er entityLabel">CHALLENGE</text><rect height="22" width="36.61909484863281" y="24" x="0" class="er attributeBoxOdd"></rect><text transform="translate(5,35)" style="dominant-baseline: middle; font-size: 10.2px;" y="0" x="0" id="text-entity-CHALLENGE-64602887-5a22-5e4e-bf53-aeb4c0b17799-attr-1-type" class="er entityLabel">int</text><rect height="22" width="85.880859375" y="24" x="36.61909484863281" class="er attributeBoxOdd"></rect><text transform="translate(41.61909484863281,35)" style="dominant-baseline: middle; font-size: 10.2px;" y="0" x="0" id="text-entity-CHALLENGE-64602887-5a22-5e4e-bf53-aeb4c0b17799-attr-1-name" class="er entityLabel">ID</text><rect height="22" width="22.68768310546875" y="24" x="122.49995422363281" class="er attributeBoxOdd"></rect><text transform="translate(127.49995422363281,35)" style="dominant-baseline: middle; font-size: 10.2px;" y="0" x="0" id="text-entity-CHALLENGE-64602887-5a22-5e4e-bf53-aeb4c0b17799-attr-1-key" class="er entityLabel">PK</text><rect height="22" width="36.61909484863281" y="46" x="0" class="er attributeBoxEven"></rect><text transform="translate(5,57)" style="dominant-baseline: middle; font-size: 10.2px;" y="0" x="0" id="text-entity-CHALLENGE-64602887-5a22-5e4e-bf53-aeb4c0b17799-attr-2-type" class="er entityLabel">string</text><rect height="22" width="85.880859375" y="46" x="36.61909484863281" class="er attributeBoxEven"></rect><text transform="translate(41.61909484863281,57)" style="dominant-baseline: middle; font-size: 10.2px;" y="0" x="0" id="text-entity-CHALLENGE-64602887-5a22-5e4e-bf53-aeb4c0b17799-attr-2-name" class="er entityLabel">Type</text><rect height="22" width="22.68768310546875" y="46" x="122.49995422363281" class="er attributeBoxEven"></rect><text transform="translate(127.49995422363281,57)" style="dominant-baseline: middle; font-size: 10.2px;" y="0" x="0" id="text-entity-CHALLENGE-64602887-5a22-5e4e-bf53-aeb4c0b17799-attr-2-key" class="er entityLabel"></text><rect height="22" width="36.61909484863281" y="68" x="0" class="er attributeBoxOdd"></rect><text transform="translate(5,79)" style="dominant-baseline: middle; font-size: 10.2px;" y="0" x="0" id="text-entity-CHALLENGE-64602887-5a22-5e4e-bf53-aeb4c0b17799-attr-3-type" class="er entityLabel">string</text><rect height="22" width="85.880859375" y="68" x="36.61909484863281" class="er attributeBoxOdd"></rect><text transform="translate(41.61909484863281,79)" style="dominant-baseline: middle; font-size: 10.2px;" y="0" x="0" id="text-entity-CHALLENGE-64602887-5a22-5e4e-bf53-aeb4c0b17799-attr-3-name" class="er entityLabel">Description</text><rect height="22" width="22.68768310546875" y="68" x="122.49995422363281" class="er attributeBoxOdd"></rect><text transform="translate(127.49995422363281,79)" style="dominant-baseline: middle; font-size: 10.2px;" y="0" x="0" id="text-entity-CHALLENGE-64602887-5a22-5e4e-bf53-aeb4c0b17799-attr-3-key" class="er entityLabel"></text><rect height="22" width="36.61909484863281" y="90" x="0" class="er attributeBoxEven"></rect><text transform="translate(5,101)" style="dominant-baseline: middle; font-size: 10.2px;" y="0" x="0" id="text-entity-CHALLENGE-64602887-5a22-5e4e-bf53-aeb4c0b17799-attr-4-type" class="er entityLabel">string</text><rect height="22" width="85.880859375" y="90" x="36.61909484863281" class="er attributeBoxEven"></rect><text transform="translate(41.61909484863281,101)" style="dominant-baseline: middle; font-size: 10.2px;" y="0" x="0" id="text-entity-CHALLENGE-64602887-5a22-5e4e-bf53-aeb4c0b17799-attr-4-name" class="er entityLabel">SuccessOutcome</text><rect height="22" width="22.68768310546875" y="90" x="122.49995422363281" class="er attributeBoxEven"></rect><text transform="translate(127.49995422363281,101)" style="dominant-baseline: middle; font-size: 10.2px;" y="0" x="0" id="text-entity-CHALLENGE-64602887-5a22-5e4e-bf53-aeb4c0b17799-attr-4-key" class="er entityLabel"></text><rect height="22" width="36.61909484863281" y="112" x="0" class="er attributeBoxOdd"></rect><text transform="translate(5,123)" style="dominant-baseline: middle; font-size: 10.2px;" y="0" x="0" id="text-entity-CHALLENGE-64602887-5a22-5e4e-bf53-aeb4c0b17799-attr-5-type" class="er entityLabel">string</text><rect height="22" width="85.880859375" y="112" x="36.61909484863281" class="er attributeBoxOdd"></rect><text transform="translate(41.61909484863281,123)" style="dominant-baseline: middle; font-size: 10.2px;" y="0" x="0" id="text-entity-CHALLENGE-64602887-5a22-5e4e-bf53-aeb4c0b17799-attr-5-name" class="er entityLabel">FailureOutcome</text><rect height="22" width="22.68768310546875" y="112" x="122.49995422363281" class="er attributeBoxOdd"></rect><text transform="translate(127.49995422363281,123)" style="dominant-baseline: middle; font-size: 10.2px;" y="0" x="0" id="text-entity-CHALLENGE-64602887-5a22-5e4e-bf53-aeb4c0b17799-attr-5-key" class="er entityLabel"></text></g><g transform="translate(109.45754623413086,488 )" id="entity-PLAYER-09044be7-efdd-5fb9-97db-80dc92021a88"><rect height="112" width="138.86636352539062" y="0" x="0" class="er entityBox"></rect><text transform="translate(69.43318176269531,12)" style="dominant-baseline: middle; text-anchor: middle; font-size: 12px;" y="0" x="0" id="text-entity-PLAYER-09044be7-efdd-5fb9-97db-80dc92021a88" class="er entityLabel">PLAYER</text><rect height="22" width="36.61909484863281" y="24" x="0" class="er attributeBoxOdd"></rect><text transform="translate(5,35)" style="dominant-baseline: middle; font-size: 10.2px;" y="0" x="0" id="text-entity-PLAYER-09044be7-efdd-5fb9-97db-80dc92021a88-attr-1-type" class="er entityLabel">int</text><rect height="22" width="79.55958557128906" y="24" x="36.61909484863281" class="er attributeBoxOdd"></rect><text transform="translate(41.61909484863281,35)" style="dominant-baseline: middle; font-size: 10.2px;" y="0" x="0" id="text-entity-PLAYER-09044be7-efdd-5fb9-97db-80dc92021a88-attr-1-name" class="er entityLabel">ID</text><rect height="22" width="22.68768310546875" y="24" x="116.17868041992188" class="er attributeBoxOdd"></rect><text transform="translate(121.17868041992188,35)" style="dominant-baseline: middle; font-size: 10.2px;" y="0" x="0" id="text-entity-PLAYER-09044be7-efdd-5fb9-97db-80dc92021a88-attr-1-key" class="er entityLabel">PK</text><rect height="22" width="36.61909484863281" y="46" x="0" class="er attributeBoxEven"></rect><text transform="translate(5,57)" style="dominant-baseline: middle; font-size: 10.2px;" y="0" x="0" id="text-entity-PLAYER-09044be7-efdd-5fb9-97db-80dc92021a88-attr-2-type" class="er entityLabel">int</text><rect height="22" width="79.55958557128906" y="46" x="36.61909484863281" class="er attributeBoxEven"></rect><text transform="translate(41.61909484863281,57)" style="dominant-baseline: middle; font-size: 10.2px;" y="0" x="0" id="text-entity-PLAYER-09044be7-efdd-5fb9-97db-80dc92021a88-attr-2-name" class="er entityLabel">CurrentRoomID</text><rect height="22" width="22.68768310546875" y="46" x="116.17868041992188" class="er attributeBoxEven"></rect><text transform="translate(121.17868041992188,57)" style="dominant-baseline: middle; font-size: 10.2px;" y="0" x="0" id="text-entity-PLAYER-09044be7-efdd-5fb9-97db-80dc92021a88-attr-2-key" class="er entityLabel">FK</text><rect height="22" width="36.61909484863281" y="68" x="0" class="er attributeBoxOdd"></rect><text transform="translate(5,79)" style="dominant-baseline: middle; font-size: 10.2px;" y="0" x="0" id="text-entity-PLAYER-09044be7-efdd-5fb9-97db-80dc92021a88-attr-3-type" class="er entityLabel">int</text><rect height="22" width="79.55958557128906" y="68" x="36.61909484863281" class="er attributeBoxOdd"></rect><text transform="translate(41.61909484863281,79)" style="dominant-baseline: middle; font-size: 10.2px;" y="0" x="0" id="text-entity-PLAYER-09044be7-efdd-5fb9-97db-80dc92021a88-attr-3-name" class="er entityLabel">HP</text><rect height="22" width="22.68768310546875" y="68" x="116.17868041992188" class="er attributeBoxOdd"></rect><text transform="translate(121.17868041992188,79)" style="dominant-baseline: middle; font-size: 10.2px;" y="0" x="0" id="text-entity-PLAYER-09044be7-efdd-5fb9-97db-80dc92021a88-attr-3-key" class="er entityLabel"></text><rect height="22" width="36.61909484863281" y="90" x="0" class="er attributeBoxEven"></rect><text transform="translate(5,101)" style="dominant-baseline: middle; font-size: 10.2px;" y="0" x="0" id="text-entity-PLAYER-09044be7-efdd-5fb9-97db-80dc92021a88-attr-4-type" class="er entityLabel">string</text><rect height="22" width="79.55958557128906" y="90" x="36.61909484863281" class="er attributeBoxEven"></rect><text transform="translate(41.61909484863281,101)" style="dominant-baseline: middle; font-size: 10.2px;" y="0" x="0" id="text-entity-PLAYER-09044be7-efdd-5fb9-97db-80dc92021a88-attr-4-name" class="er entityLabel">Status</text><rect height="22" width="22.68768310546875" y="90" x="116.17868041992188" class="er attributeBoxEven"></rect><text transform="translate(121.17868041992188,101)" style="dominant-baseline: middle; font-size: 10.2px;" y="0" x="0" id="text-entity-PLAYER-09044be7-efdd-5fb9-97db-80dc92021a88-attr-4-key" class="er entityLabel"></text></g><g transform="translate(195.5113868713379,700 )" id="entity-GAMESTATE-886cf0a8-8400-5324-ad8f-a65137267fa4"><rect height="112" width="136.19186401367188" y="0" x="0" class="er entityBox"></rect><text transform="translate(68.09593200683594,12)" style="dominant-baseline: middle; text-anchor: middle; font-size: 12px;" y="0" x="0" id="text-entity-GAMESTATE-886cf0a8-8400-5324-ad8f-a65137267fa4" class="er entityLabel">GAMESTATE</text><rect height="22" width="52.06849670410156" y="24" x="0" class="er attributeBoxOdd"></rect><text transform="translate(5,35)" style="dominant-baseline: middle; font-size: 10.2px;" y="0" x="0" id="text-entity-GAMESTATE-886cf0a8-8400-5324-ad8f-a65137267fa4-attr-1-type" class="er entityLabel">int</text><rect height="22" width="61.43568420410156" y="24" x="52.06849670410156" class="er attributeBoxOdd"></rect><text transform="translate(57.06849670410156,35)" style="dominant-baseline: middle; font-size: 10.2px;" y="0" x="0" id="text-entity-GAMESTATE-886cf0a8-8400-5324-ad8f-a65137267fa4-attr-1-name" class="er entityLabel">ID</text><rect height="22" width="22.68768310546875" y="24" x="113.50418090820312" class="er attributeBoxOdd"></rect><text transform="translate(118.50418090820312,35)" style="dominant-baseline: middle; font-size: 10.2px;" y="0" x="0" id="text-entity-GAMESTATE-886cf0a8-8400-5324-ad8f-a65137267fa4-attr-1-key" class="er entityLabel">PK</text><rect height="22" width="52.06849670410156" y="46" x="0" class="er attributeBoxEven"></rect><text transform="translate(5,57)" style="dominant-baseline: middle; font-size: 10.2px;" y="0" x="0" id="text-entity-GAMESTATE-886cf0a8-8400-5324-ad8f-a65137267fa4-attr-2-type" class="er entityLabel">int</text><rect height="22" width="61.43568420410156" y="46" x="52.06849670410156" class="er attributeBoxEven"></rect><text transform="translate(57.06849670410156,57)" style="dominant-baseline: middle; font-size: 10.2px;" y="0" x="0" id="text-entity-GAMESTATE-886cf0a8-8400-5324-ad8f-a65137267fa4-attr-2-name" class="er entityLabel">PlayerID</text><rect height="22" width="22.68768310546875" y="46" x="113.50418090820312" class="er attributeBoxEven"></rect><text transform="translate(118.50418090820312,57)" style="dominant-baseline: middle; font-size: 10.2px;" y="0" x="0" id="text-entity-GAMESTATE-886cf0a8-8400-5324-ad8f-a65137267fa4-attr-2-key" class="er entityLabel">FK</text><rect height="22" width="52.06849670410156" y="68" x="0" class="er attributeBoxOdd"></rect><text transform="translate(5,79)" style="dominant-baseline: middle; font-size: 10.2px;" y="0" x="0" id="text-entity-GAMESTATE-886cf0a8-8400-5324-ad8f-a65137267fa4-attr-3-type" class="er entityLabel">datetime</text><rect height="22" width="61.43568420410156" y="68" x="52.06849670410156" class="er attributeBoxOdd"></rect><text transform="translate(57.06849670410156,79)" style="dominant-baseline: middle; font-size: 10.2px;" y="0" x="0" id="text-entity-GAMESTATE-886cf0a8-8400-5324-ad8f-a65137267fa4-attr-3-name" class="er entityLabel">Timestamp</text><rect height="22" width="22.68768310546875" y="68" x="113.50418090820312" class="er attributeBoxOdd"></rect><text transform="translate(118.50418090820312,79)" style="dominant-baseline: middle; font-size: 10.2px;" y="0" x="0" id="text-entity-GAMESTATE-886cf0a8-8400-5324-ad8f-a65137267fa4-attr-3-key" class="er entityLabel"></text><rect height="22" width="52.06849670410156" y="90" x="0" class="er attributeBoxEven"></rect><text transform="translate(5,101)" style="dominant-baseline: middle; font-size: 10.2px;" y="0" x="0" id="text-entity-GAMESTATE-886cf0a8-8400-5324-ad8f-a65137267fa4-attr-4-type" class="er entityLabel">string</text><rect height="22" width="61.43568420410156" y="90" x="52.06849670410156" class="er attributeBoxEven"></rect><text transform="translate(57.06849670410156,101)" style="dominant-baseline: middle; font-size: 10.2px;" y="0" x="0" id="text-entity-GAMESTATE-886cf0a8-8400-5324-ad8f-a65137267fa4-attr-4-name" class="er entityLabel">Data</text><rect height="22" width="22.68768310546875" y="90" x="113.50418090820312" class="er attributeBoxEven"></rect><text transform="translate(118.50418090820312,101)" style="dominant-baseline: middle; font-size: 10.2px;" y="0" x="0" id="text-entity-GAMESTATE-886cf0a8-8400-5324-ad8f-a65137267fa4-attr-4-key" class="er entityLabel"></text></g><rect height="14" width="44.978515625" y="169.8494873046875" x="68.24793243408203" class="er relationshipLabelBox"></rect><text style="text-anchor: middle; dominant-baseline: middle; font-size: 12px;" y="176.8494873046875" x="90.73719024658203" id="rel295" class="er relationshipLabel">contains</text><rect height="14" width="28.2265625" y="435.48919677734375" x="87.24959564208984" class="er relationshipLabelBox"></rect><text style="text-anchor: middle; dominant-baseline: middle; font-size: 12px;" y="442.48919677734375" x="101.36287689208984" id="rel296" class="er relationshipLabel">faces</text><rect height="14" width="27.447265625" y="647.3565673828125" x="173.7137451171875" class="er relationshipLabelBox"></rect><text style="text-anchor: middle; dominant-baseline: middle; font-size: 12px;" y="654.3565673828125" x="187.4373779296875" id="rel297" class="er relationshipLabel">plays</text><rect height="14" width="18.619140625" y="319.0497741699219" x="269.580078125" class="er relationshipLabelBox"></rect><text style="text-anchor: middle; dominant-baseline: middle; font-size: 12px;" y="326.0497741699219" x="278.8896484375" id="rel298" class="er relationshipLabel">isIn</text><rect height="14" width="17.861328125" y="399.60028076171875" x="404.67633056640625" class="er relationshipLabelBox"></rect><text style="text-anchor: middle; dominant-baseline: middle; font-size: 12px;" y="406.60028076171875" x="413.60699462890625" id="rel299" class="er relationshipLabel">has</text><rect height="14" width="90.408203125" y="194.7685089111328" x="101.28997802734375" class="er relationshipLabelBox"></rect><text style="text-anchor: middle; dominant-baseline: middle; font-size: 12px;" y="201.7685089111328" x="146.49407958984375" id="rel300" class="er relationshipLabel">isAssociatedWith</text></svg>